Coordinates
version=1
nRows=60
nColumns=12
inDegrees=yes

Units are S.I. units (second, meters, Newtons, ...)
Angles are in degrees

endheader
time	SC_y	SC_z	SC_x	AC_y	AC_z	AC_x	GH_y	GH_z	GH_yy	EL_x	PS_y
       0.0              -47.32          18.16          26.39          45.03          -12.4         -7.711         -128.4          33.79          37.74          10.58          34.02
     0.016              -47.32          18.16           26.4          45.03         -12.41         -7.712         -128.4          33.79          37.75          10.59          34.02
   0.03199              -47.32          18.15           26.4          45.03         -12.41         -7.712         -128.4           33.8          37.75           10.6          34.03
   0.04799              -47.32          18.15          26.41          45.03         -12.41         -7.713         -128.4           33.8          37.76          10.62          34.03
   0.06398              -47.33          18.15          26.42          45.03         -12.41         -7.714         -128.4          33.81          37.77          10.63          34.03
   0.07998              -47.33          18.15          26.43          45.03         -12.41         -7.715         -128.3          33.81          37.78          10.65          34.04
   0.09597              -47.33          18.14          26.44          45.04         -12.41         -7.716         -128.3          33.82          37.79          10.66          34.04
     0.112              -47.33          18.14          26.45          45.04         -12.41         -7.717         -128.3          33.83           37.8          10.68          34.05
     0.128              -47.33          18.14          26.47          45.04         -12.42         -7.718         -128.3          33.83          37.81           10.7          34.05
     0.144              -47.33          18.13          26.48          45.04         -12.42         -7.719         -128.2          33.84          37.82          10.72          34.05
      0.16              -47.33          18.13          26.49          45.04         -12.42          -7.72         -128.2          33.85          37.83          10.74          34.06
    0.1759              -47.33          18.12          26.51          45.05         -12.42         -7.721         -128.2          33.86          37.84          10.77          34.07
    0.1919              -47.34          18.12          26.52          45.05         -12.42         -7.723         -128.1          33.87          37.85          10.79          34.07
    0.2079              -47.34          18.11          26.54          45.05         -12.43         -7.724         -128.1          33.88          37.87          10.82          34.08
    0.2239              -47.34          18.11          26.56          45.05         -12.43         -7.726         -128.0          33.89          37.88          10.85          34.08
    0.2399              -47.34           18.1          26.58          45.06         -12.43         -7.728         -128.0          33.91           37.9          10.88          34.09
    0.2559              -47.34           18.1           26.6          45.06         -12.43          -7.73         -127.9          33.92          37.92          10.91           34.1
    0.2719              -47.35          18.09          26.63          45.06         -12.44         -7.732         -127.9          33.94          37.94          10.95          34.11
    0.2879              -47.35          18.08          26.65          45.07         -12.44         -7.734         -127.8          33.95          37.96          10.99          34.12
    0.3039              -47.35          18.07          26.68          45.07         -12.45         -7.737         -127.8          33.97          37.98          11.04          34.13
    0.3199              -47.36          18.07          26.71          45.08         -12.45          -7.74         -127.7          33.99          38.01          11.09          34.14
    0.3359              -47.36          18.06          26.75          45.08         -12.46         -7.743         -127.6          34.01          38.04          11.14          34.15
    0.3519              -47.36          18.04          26.78          45.09         -12.46         -7.746         -127.5          34.04          38.07           11.2          34.17
    0.3679              -47.37          18.03          26.83          45.09         -12.47          -7.75         -127.4          34.07          38.11          11.27          34.18
    0.3839              -47.37          18.02          26.87           45.1         -12.47         -7.754         -127.3           34.1          38.15          11.34           34.2
    0.3999              -47.38           18.0          26.93          45.11         -12.48         -7.759         -127.2          34.13          38.19          11.43          34.22
    0.4159              -47.38          17.99          26.99          45.12         -12.49         -7.764         -127.1          34.17          38.24          11.52          34.24
    0.4319              -47.39          17.97          27.05          45.13          -12.5          -7.77         -126.9          34.21           38.3          11.62          34.27
    0.4479               -47.4          17.95          27.13          45.14         -12.51         -7.777         -126.8          34.26          38.36          11.74          34.29
    0.4639              -47.41          17.92          27.21          45.15         -12.52         -7.784         -126.6          34.31          38.43          11.88          34.33
    0.4799              -47.42          17.89          27.31          45.17         -12.54         -7.793         -126.4          34.37          38.51          12.03          34.36
    0.4959              -47.43          17.86          27.42          45.18         -12.55         -7.803         -126.1          34.45           38.6           12.2           34.4
    0.5118              -47.44          17.82          27.55           45.2         -12.57         -7.814         -125.8          34.53          38.71          12.41          34.45
    0.5278              -47.46          17.78           27.7          45.22         -12.59         -7.828         -125.5          34.62          38.83          12.64           34.5
    0.5438              -47.48          17.73          27.87          45.25         -12.62         -7.843         -125.1          34.73          38.98          12.92          34.57
    0.5598               -47.5          17.67          28.08          45.28         -12.65         -7.862         -124.6          34.87          39.15          13.24          34.64
    0.5758              -47.52           17.6          28.32          45.32         -12.68         -7.884         -124.1          35.02          39.36          13.63          34.74
    0.5918              -47.55          17.52          28.62          45.36         -12.73          -7.91         -123.4          35.21           39.6          14.09          34.84
    0.6078              -47.59          17.41          28.97          45.41         -12.78         -7.942         -122.6          35.44           39.9          14.65          34.97
    0.6238              -47.63          17.29          29.41          45.48         -12.84          -7.98         -121.6          35.72          40.26          15.33          35.13
    0.6398              -47.69          17.14          29.94          45.56         -12.92         -8.028         -120.4          36.06          40.71          16.17          35.33
    0.6558              -47.76          16.94          30.61          45.66         -13.02         -8.088         -118.9          36.49          41.27          17.22          35.58
    0.6718              -47.85           16.7          31.45          45.79         -13.14         -8.163         -117.0          37.02          41.97          18.55          35.89
    0.6878              -47.96          16.39          32.52          45.95         -13.29         -8.258         -114.6          37.71          42.86          20.23          36.28
    0.7038               -48.1           16.0          33.89          46.15         -13.49         -8.381         -111.5          38.58           44.0          22.39          36.79
    0.7198              -48.28          15.49          35.65          46.41         -13.75         -8.537         -107.6          39.71          45.47          25.15          37.44
    0.7358              -48.51          14.85          37.89          46.75         -14.07         -8.738         -102.5          41.14          47.34          28.68          38.26
    0.7518               -48.8          14.04          40.71          47.17         -14.48          -8.99         -96.17          42.95           49.7          33.12           39.3
    0.7678              -49.16          13.05          44.15          47.68         -14.98         -9.297         -88.42          45.15          52.57          38.53          40.57
    0.7838              -49.57           11.9          48.14          48.28         -15.56         -9.652         -79.45           47.7           55.9          44.81          42.04
    0.7998              -50.02          10.66          52.45          48.93         -16.19         -10.04         -69.73          50.46           59.5           51.6          43.63
    0.8158              -50.46          9.418          56.77          49.57         -16.81         -10.42         -60.01          53.22           63.1          58.39          45.22
    0.8317              -50.87          8.271          60.76          50.17         -17.39         -10.78         -51.03          55.77          66.43          64.66          46.69
    0.8477              -51.23          7.282           64.2          50.68         -17.89         -11.09         -43.29          57.96           69.3          70.08          47.96
    0.8637              -51.52           6.47          67.02           51.1          -18.3         -11.34         -36.93          59.77          71.66          74.52           49.0
    0.8797              -51.75          5.825          69.26          51.44         -18.63         -11.54         -31.88           61.2          73.53          78.05          49.83
    0.8957              -51.93          5.319          71.02           51.7         -18.88         -11.69         -27.92          62.33           75.0          80.81          50.48
    0.9117              -52.08          4.925          72.39          51.91         -19.08         -11.82         -24.84           63.2          76.14          82.97          50.98
    0.9277              -52.19          4.618          73.46          52.06         -19.23         -11.91         -22.43          63.89          77.03          84.65          51.38
    0.9437              -52.27          4.376           74.3          52.19         -19.36         -11.99         -20.54          64.43          77.74          85.98          51.69
